<?xml version="1.0" encoding="UTF-8"?>
<svg width="32px" height="32px" viewBox="0 0 32 32" version="1.1" xmlns="http://www.w3.org/2000/svg" xmlns:xlink="http://www.w3.org/1999/xlink">
    <title>logo/Cloudreve</title>
    <g id="logo/Cloudreve" stroke="none" stroke-width="1" fill="none" fill-rule="evenodd">
        <path d="M17.5,5 C21.4793591,5 24.734876,8.09913709 24.9845994,12.0154601 C28.9008629,12.265124 32,15.5206409 32,19.5 C32,23.4739219 28.9093262,26.7259782 25.0005886,26.983559 L24.9001545,26.9849659 C24.8516401,26.9948245 24.8014245,27 24.75,27 L7.5,27 C3.35786438,27 0,23.6421356 0,19.5 C0,15.3578644 3.35786438,12 7.5,12 L7.60177056,12.0068466 C7.96784612,12.056509 8.25,12.3703042 8.25,12.75 C8.25,13.1296958 7.96784612,13.443491 7.60177056,13.4931534 L7.5,13.5 C4.1862915,13.5 1.5,16.1862915 1.5,19.5 C1.5,22.7383969 4.06557489,25.3775718 7.27506174,25.4958615 L7.5,25.5 L17.5522894,25.5006842 C15.663626,24.1311275 14.3747828,21.9113439 14.3747828,19.1282768 C14.6732891,14.682818 18.1094624,12.1527708 21.9159449,11.7946781 C21.9869713,11.7721684 22.062576,11.7601341 22.1409914,11.7601341 C22.555205,11.7601341 22.8909914,12.0959206 22.8909914,12.5101341 C22.8909914,12.9243477 22.555205,13.2601341 22.1409914,13.2601341 L22.1327828,13.2601341 L21.9156469,13.2640714 C18.694605,13.376637 15.874819,15.8898798 15.874819,19.1282768 C15.8940996,22.5413084 18.1485248,25.2129086 21.1909776,25.5014835 L24.75,25.5 L24.7716673,25.5010545 C24.8144992,25.4944818 24.8579536,25.489705 24.9019544,25.4868054 C28.0417244,25.2798986 30.5,22.6643508 30.5,19.5 C30.5,16.3308716 28.0345417,13.7129406 24.8891673,13.5124213 C23.9285065,13.4511786 23.5549786,13.166967 23.4876396,12.1109134 C23.2919628,9.04218438 20.7953987,6.62067115 17.730877,6.50437409 L17.5,6.5 L17,6.5 C13.8353505,6.5 11.219653,8.95872463 11.0131417,12.0988496 L10.999607,12.2254875 C10.9998683,12.2336263 11,12.2417978 11,12.25 L11,22.2776528 C11,22.6918664 10.6642136,23.0276528 10.25,23.0276528 C9.83578644,23.0276528 9.5,22.6918664 9.5,22.2776528 L9.5,12.25 C9.5,12.19928 9.5050347,12.1497359 9.51463159,12.1018402 L9.51637502,12.0004142 C9.77346558,8.09120245 13.0257383,5 17,5 L17.5,5 Z" id="形状结合" fill="#3F51B5" fill-rule="nonzero"></path>
    </g>
</svg>